<?xml version="1.0" standalone="no"?>
<!DOCTYPE svg PUBLIC "-//W3C//DTD SVG 20010904//EN"
 "http://www.w3.org/TR/2001/REC-SVG-20010904/DTD/svg10.dtd">
<svg version="1.0" xmlns="http://www.w3.org/2000/svg"
 width="2248.000000pt" height="1333.000000pt" viewBox="0 0 2248.000000 1333.000000"
 preserveAspectRatio="xMidYMid meet">

<g transform="translate(0.000000,1333.000000) scale(0.100000,-0.100000)"
fill="#000000" stroke="none">
<path d="M20025 9398 c-13 -61 -122 -402 -178 -558 -91 -255 -154 -404 -257
-615 -133 -271 -241 -438 -376 -585 l-55 -59 56 -72 c93 -120 154 -267 171
-411 4 -32 10 -58 14 -58 10 0 70 137 155 355 37 94 86 220 110 280 260 659
363 990 416 1340 17 109 7 331 -16 378 -23 45 -31 47 -40 5z"/>
<path d="M18683 8384 c-142 -37 -226 -123 -260 -267 -24 -105 20 -232 108
-311 68 -62 120 -81 224 -81 78 0 97 4 146 28 66 32 132 99 162 165 33 72 31
208 -4 282 -44 93 -122 157 -220 179 -81 18 -104 19 -156 5z"/>
<path d="M18735 7480 c-218 -70 -811 -600 -881 -787 -101 -274 -245 -600 -321
-728 -109 -184 -169 -275 -241 -363 -40 -49 -39 -48 88 10 131 61 235 136 340
244 150 155 248 323 331 567 l43 128 56 31 c59 34 133 84 275 187 238 172 377
261 408 261 11 0 22 -21 36 -67 47 -161 62 -254 91 -568 11 -121 27 -243 35
-270 19 -65 61 -107 117 -114 52 -7 410 3 703 20 121 7 233 9 247 6 49 -13 52
-36 24 -160 -41 -184 -40 -178 -55 -432 -33 -561 -20 -883 41 -1037 6 -16 14
-28 19 -28 27 0 214 837 319 1432 16 90 42 363 41 431 0 38 -5 86 -11 107
l-10 38 -93 6 c-50 3 -285 11 -522 17 -512 13 -497 13 -511 22 -16 9 -30 75
-48 227 -39 314 -48 378 -63 425 -45 148 -57 179 -92 233 -73 112 -147 159
-262 167 -41 2 -87 0 -104 -5z"/>
<path d="M2162 5925 c-95 -25 -136 -46 -172 -92 -20 -26 -20 -33 -20 -1111 l0
-1085 83 7 c148 12 246 46 302 106 l30 31 2 1085 3 1084 -68 0 c-37 -1 -109
-12 -160 -25z"/>
<path d="M5415 5943 c-161 -35 -223 -63 -256 -116 -18 -31 -19 -59 -19 -829 0
-459 -4 -798 -9 -798 -5 0 -94 73 -197 162 -542 466 -750 645 -789 680 -16 14
-67 57 -111 95 -45 37 -264 226 -488 418 -295 254 -419 355 -454 369 -102 40
-298 2 -361 -70 l-31 -35 0 -1091 0 -1090 88 7 c125 10 237 48 284 95 l38 38
1 768 c1 874 0 839 15 839 12 0 76 -53 584 -484 151 -128 374 -317 495 -420
120 -102 285 -242 365 -311 81 -69 214 -181 295 -250 82 -69 162 -137 179
-152 136 -118 170 -133 301 -131 99 1 165 27 195 75 20 33 20 50 20 1136 l0
1102 -62 -1 c-35 -1 -72 -3 -83 -6z"/>
<path d="M11938 5940 c-141 -24 -241 -84 -253 -153 -3 -17 -4 -507 -3 -1087
l3 -1055 80 3 c129 4 260 47 310 102 20 22 20 38 23 1111 l2 1089 -57 -1 c-32
-1 -79 -5 -105 -9z"/>
<path d="M6580 5924 c-227 -15 -350 -30 -364 -44 -6 -6 -17 -10 -26 -10 -38 0
-179 -80 -238 -135 -69 -64 -101 -111 -134 -201 -19 -53 -22 -79 -22 -254 -1
-191 0 -196 27 -260 48 -113 132 -198 263 -264 159 -80 268 -92 1074 -117 319
-9 466 -18 540 -33 148 -30 230 -69 274 -129 18 -25 21 -45 24 -165 3 -127 1
-140 -20 -182 -19 -38 -34 -50 -90 -78 -127 -63 -144 -64 -973 -71 -836 -7
-778 -1 -845 -77 -35 -41 -104 -179 -115 -231 l-7 -33 849 0 c900 0 996 4
1168 46 244 60 354 136 417 285 31 73 31 76 36 286 4 194 2 218 -16 280 -71
231 -312 377 -712 432 -42 6 -285 11 -540 12 -256 1 -513 5 -571 9 -182 14
-316 69 -352 145 -24 51 -24 246 1 291 59 109 245 166 577 180 188 7 220 14
277 57 67 51 119 141 144 250 l6 27 -228 -1 c-126 -1 -317 -8 -424 -15z"/>
<path d="M8619 5901 l-39 -39 0 -1112 0 -1113 78 7 c123 11 186 26 248 60 96
52 94 45 94 428 l0 327 858 4 c752 3 867 6 942 21 277 54 446 135 546 260 92
114 105 166 111 461 6 275 -5 348 -63 432 -93 135 -318 241 -602 282 -138 20
-181 21 -1139 21 l-995 0 -39 -39z m2170 -319 c57 -12 123 -31 147 -42 55 -27
104 -82 104 -118 1 -15 0 -110 0 -212 -1 -210 -10 -245 -78 -298 -46 -36 -157
-78 -242 -92 -41 -6 -374 -10 -892 -10 l-828 0 0 393 c0 217 3 397 7 401 5 4
384 6 843 3 807 -4 839 -4 939 -25z"/>
<path d="M12433 5914 c-19 -14 -37 -40 -43 -62 -6 -24 -10 -410 -10 -1126 l0
-1089 82 7 c151 13 271 55 312 110 20 26 21 43 26 369 3 188 9 341 13 341 4
-1 90 -37 190 -79 100 -43 245 -104 322 -137 77 -32 158 -67 180 -77 22 -10
56 -24 75 -31 19 -7 40 -17 45 -21 6 -4 37 -17 70 -30 33 -12 65 -26 71 -30 6
-5 31 -16 55 -24 24 -8 58 -22 74 -30 17 -8 89 -39 160 -69 242 -102 560 -237
602 -256 114 -53 215 -51 329 5 80 39 205 147 189 163 -5 6 -91 45 -190 87
-233 98 -269 114 -332 142 -28 13 -54 23 -57 23 -3 0 -101 41 -218 90 -117 50
-233 99 -258 110 -25 10 -81 34 -125 53 -44 19 -109 46 -145 61 -36 15 -78 34
-95 41 -16 7 -47 20 -67 29 -21 8 -38 19 -38 24 0 6 175 12 448 15 436 4 450
5 567 31 66 14 147 35 180 47 212 75 346 204 384 370 6 24 11 139 11 255 0
165 -3 222 -16 265 -71 239 -281 374 -669 429 -132 19 -197 20 -1115 20 l-975
0 -32 -26z m1922 -313 c256 -17 402 -69 450 -161 18 -34 21 -389 4 -422 -40
-79 -150 -131 -308 -147 -63 -7 -412 -11 -902 -11 l-799 0 0 368 c0 203 3 372
7 375 10 10 1388 8 1548 -2z"/>
<path d="M16110 5919 c-235 -35 -379 -99 -507 -224 -62 -61 -90 -98 -115 -150
l-33 -70 -3 -659 c-2 -433 1 -677 8 -709 44 -205 216 -340 548 -430 l117 -31
814 -4 c624 -2 821 0 844 9 16 7 42 30 58 52 32 45 62 162 57 228 l-3 44 -855
6 c-737 5 -864 8 -922 22 -140 33 -226 94 -248 176 -6 24 -9 119 -8 233 l3
193 1019 3 1018 2 -6 48 c-20 139 -65 244 -119 274 -17 10 -231 14 -967 18
l-945 5 -3 218 c-3 237 0 249 56 302 103 98 298 135 727 135 283 0 274 -2 358
85 37 39 157 222 157 240 0 3 -208 5 -462 4 -398 -1 -480 -3 -588 -20z"/>
<path d="M19055 5848 c-5 -14 -21 -130 -114 -818 -28 -209 -35 -231 -111 -370
-88 -160 -190 -374 -244 -512 -83 -209 -141 -424 -161 -600 -15 -125 -15 -144
0 -230 9 -51 20 -96 23 -100 10 -11 174 293 397 736 206 409 276 564 350 776
26 74 51 144 56 155 15 37 78 289 104 420 42 209 35 310 -30 422 -29 49 -96
105 -144 122 -46 15 -120 14 -126 -1z"/>
</g>
</svg>
